<svg width="24" height="24" viewBox="0 0 24 24" fill="none" xmlns="http://www.w3.org/2000/svg">
<path fill-rule="evenodd" clip-rule="evenodd" d="M11.9009 4.52211C10.1185 7.73642 9.65734 7.96513 5.9194 7.6979C5.33837 7.65636 4.98851 7.0297 5.27678 6.52352C6.98022 3.53248 8.28137 2.75403 11.385 3.36969C11.9045 3.47275 12.1577 4.0589 11.9009 4.52211ZM11.4384 16.3228C11.2759 16.7618 11.1872 17.2365 11.1872 17.732C11.1872 18.2275 11.2759 18.7023 11.4384 19.1412C11.5249 19.3748 11.5339 19.6374 11.4038 19.8498C10.6901 21.0149 9.40538 21.7922 7.93906 21.7922C5.6967 21.7922 3.87891 19.9744 3.87891 17.732C3.87891 15.4897 5.6967 13.6719 7.93906 13.6719C9.40538 13.6719 10.6901 14.4492 11.4038 15.6142C11.5339 15.8266 11.5249 16.0892 11.4384 16.3228ZM20.1195 17.732C20.1195 19.9744 18.3017 21.7922 16.0594 21.7922C13.817 21.7922 11.9992 19.9744 11.9992 17.732C11.9992 15.4897 13.817 13.6719 16.0594 13.6719C18.3017 13.6719 20.1195 15.4897 20.1195 17.732Z" fill="#060D1A" fill-opacity="0.1"/>
<path fill-rule="evenodd" clip-rule="evenodd" d="M12.9312 4.55385C12.9277 5.20586 12.9077 5.82812 12.8641 6.42639C13.1808 6.27373 13.518 6.20025 13.8703 6.21515C13.5904 5.69037 13.2768 5.14004 12.9312 4.55385ZM15.5272 7.33147C14.8887 5.8641 13.9609 4.3022 12.8323 2.44897C12.7144 2.25523 12.4807 2.16519 12.2632 2.22963C12.0458 2.29407 11.8989 2.49685 11.9055 2.72359C11.9163 3.09334 11.9242 3.45117 11.9283 3.79815C11.8303 3.58683 11.6397 3.42021 11.385 3.36969C8.28137 2.75403 6.98022 3.53248 5.27678 6.52352C4.98851 7.0297 5.33837 7.65636 5.9194 7.6979C9.65734 7.96513 10.1185 7.73642 11.9009 4.52211C11.912 4.502 11.9222 4.48164 11.9315 4.46111C11.9274 5.76466 11.8579 6.91325 11.6725 7.97176L11.669 7.99181C11.6042 8.35814 11.5255 8.71371 11.4308 9.06121C10.9852 10.6957 10.1776 12.1748 8.74901 13.7527C8.48728 13.6997 8.21642 13.6719 7.93906 13.6719C5.6967 13.6719 3.87891 15.4897 3.87891 17.732C3.87891 19.9744 5.6967 21.7922 7.93906 21.7922C9.40538 21.7922 10.6901 21.0149 11.4038 19.8498C11.5339 19.6374 11.5249 19.3748 11.4384 19.1412C11.2759 18.7023 11.1872 18.2275 11.1872 17.732C11.1872 17.2365 11.2759 16.7618 11.4384 16.3228C11.5249 16.0892 11.5339 15.8266 11.4038 15.6142C11.0108 14.9726 10.4445 14.4486 9.77017 14.1073C10.0875 13.7393 10.3751 13.3737 10.6354 13.0079C11.4852 11.8134 12.0434 10.6163 12.3956 9.32421C12.4944 8.96187 12.5767 8.59298 12.6447 8.21575C12.8058 7.31294 14.1739 6.72439 14.6226 7.7583L15.0749 7.54488L15.5272 7.33147ZM15.5272 7.33147L15.0749 7.54488L14.6231 7.75946C14.7758 8.11254 14.9096 8.45763 15.0237 8.79875C15.2351 9.4302 15.3787 10.0476 15.4484 10.6759C15.4844 11.0005 15.5007 11.328 15.4963 11.6618C15.4887 12.2375 15.4199 12.8328 15.2847 13.4653C15.2643 13.5605 15.2709 13.656 15.2997 13.7428C14.0871 13.9723 13.0652 14.7411 12.4928 15.7903C11.9845 16.7219 11.8638 17.854 12.1619 18.8735C12.655 20.5602 14.2133 21.7922 16.0594 21.7922C18.3017 21.7922 20.1195 19.9744 20.1195 17.732C20.1195 15.5576 18.4102 13.7824 16.262 13.6768L16.2626 13.6743L16.2634 13.6703C16.3936 13.0602 16.468 12.478 16.49 11.9125C16.5021 11.6023 16.4984 11.2973 16.4796 10.9958C16.4266 10.1465 16.2536 9.32437 15.9745 8.48877C15.8471 8.10719 15.6974 7.72272 15.5272 7.33147ZM10.4815 16.0282C9.93073 15.2083 8.99713 14.6719 7.93906 14.6719C6.24898 14.6719 4.87891 16.042 4.87891 17.732C4.87891 19.4221 6.24898 20.7922 7.93906 20.7922C8.99713 20.7922 9.93073 20.2558 10.4815 19.4359C10.2907 18.9022 10.1872 18.3281 10.1872 17.732C10.1872 17.1359 10.2907 16.5618 10.4815 16.0282ZM16.0594 20.7922C17.7494 20.7922 19.1195 19.4221 19.1195 17.732C19.1195 16.042 17.7494 14.6719 16.0594 14.6719C14.3693 14.6719 12.9992 16.042 12.9992 17.732C12.9992 19.4221 14.3693 20.7922 16.0594 20.7922ZM8.27461 4.4774C8.85475 4.16951 9.60681 4.07348 10.8832 4.29351C10.0557 5.76412 9.64537 6.28355 9.17627 6.53144C8.70093 6.78262 8.01956 6.83387 6.3173 6.72282C7.06992 5.45183 7.66109 4.80301 8.27461 4.4774Z" fill="#ECFD00"/>
</svg>
