<svg width="24" height="25" viewBox="0 0 24 25" fill="none" xmlns="http://www.w3.org/2000/svg">
<path d="M19.191 8.20875C18.9171 5.25976 21.02 5.6447 21.852 5.6447C21.9376 5.19094 21.8524 4.77675 21.852 4.46228C17.5013 4.38057 18.0121 7.37316 18.0121 8.23844C15.7102 8.60595 13.8358 10.6371 13.8358 13.0412C13.8358 13.1716 13.8245 13.299 13.8089 13.4253C13.789 13.5872 13.9121 13.7315 14.0753 13.7315C16.5266 13.7315 18.9779 13.7315 21.4292 13.7315H23.2586C23.4003 13.7315 23.5181 13.621 23.5277 13.4796C23.5374 13.3343 23.5461 13.1888 23.5461 13.0412C23.5461 10.6373 21.526 8.47827 19.191 8.20875Z" fill="#060D1A" fill-opacity="0.1"/>
<path d="M13.2757 15.2631C12.4692 16.8086 10.8639 17.8736 9.0036 17.8736H7.38641C-0.301337 17.8736 0.68355 15.0866 0.68355 15.7364C0.68355 22.9825 5.9687 24.4597 11.979 24.4597C17.6317 24.4597 21.559 21.0661 22.6667 15.7364C22.7007 15.5731 23.1076 13.2657 22.9408 13.2657C20.4434 13.6156 15.4612 11.0749 13.2757 15.2631Z" fill="#060D1A" fill-opacity="0.1"/>
<path d="M4.27831 14.7608C3.99347 10.33 7.8546 7.79814 7.8546 7.79814C8.67747 9.8553 9.0036 11.2162 9.0036 11.2162C9.6204 11.0329 10.5093 12.7821 10.5093 12.7821C10.5093 13.8222 9.0036 15.7364 9.0036 15.7364C9.0036 15.7364 12.1389 14.4115 12.8234 11.6605C13.5904 8.57804 13.0766 6.05746 13.0766 6.05746C13.1963 8.0046 12.7918 5.64375 10.8296 7.79814C9.69022 5.2979 9.0036 2.60776 9.40539 1.84766C6.39877 1.84687 4.27831 5.64375 4.27831 5.64375C4.08842 7.29116 3.67698 7.73519 2.56928 6.9433C-0.309284 12.6322 4.27831 14.7608 4.27831 14.7608Z" fill="#060D1A" fill-opacity="0.1"/>
<path d="M23.5461 13.7318H22.3298C22.3925 14.1123 22.3591 14.5578 22.193 15.0504C22.4521 15.0436 22.7152 15.0708 22.9474 15.0948C23.115 15.1121 23.2665 15.1277 23.3887 15.1277C23.5461 14.599 23.5461 14.0312 23.5461 13.7318Z" fill="#ECFD00"/>
<path fill-rule="evenodd" clip-rule="evenodd" d="M18.0121 8.23873L18.011 8.23892C15.2862 8.67462 13.7691 11.1322 13.7691 13.7318H14.9805H15.9067C17.0625 13.7318 17.8174 13.7318 18.6231 13.7318C19.3855 13.7318 20.1933 13.7318 21.4292 13.7318H22.3298H23.5461C23.5559 13.5866 23.5461 13.1891 23.5461 13.0415C23.5461 10.6376 21.526 8.47856 19.191 8.20905L19.1902 8.20015C18.9466 5.53747 20.6466 5.60212 21.5867 5.63788C21.6843 5.64159 21.7738 5.645 21.852 5.645L21.8521 5.11672V5.11555L21.8522 4.78696L21.852 4.46258C17.8599 4.3876 17.9611 6.90202 18.0048 7.98506C18.0087 8.08206 18.0121 8.16758 18.0121 8.23873ZM15.9067 12.5537H15.0491C15.3482 10.4902 16.7115 9.42891 18.6231 9.37829C20.8869 9.44343 22.0815 10.9639 22.3298 12.5537H21.4292C20.5127 12.5537 19.6441 12.5537 18.6231 12.5537C17.838 12.5537 16.9629 12.5537 15.9067 12.5537Z" fill="#ECFD00"/>
<path d="M14.9805 13.7318H13.7691C13.731 14.5708 13.3476 15.1125 13.3476 15.1125H14.6271C14.6271 15.1125 15.0191 14.4089 14.9805 13.7318Z" fill="#ECFD00"/>
<path fill-rule="evenodd" clip-rule="evenodd" d="M9.89237 1.69847L10.4851 0.777344L9.43465 1.01246C6.79626 1.60299 5.16783 3.13128 4.27995 4.72526C3.81712 5.55614 3.55601 6.40048 3.45487 7.14683C3.25424 6.61459 3.26771 6.035 3.2809 5.46671C3.28416 5.32638 3.28741 5.18674 3.28741 5.04867L2.51511 5.99667C1.56765 7.15968 1.09715 8.3378 0.985482 9.47471C0.874066 10.6091 1.12278 11.672 1.56665 12.6036C2.44574 14.4489 4.35065 15.4092 5.67118 15.9073C4.73546 14.7132 4.68732 14.0202 4.73546 13.1003C4.77005 12.4392 4.95221 12.1936 5.15518 11.9199C5.20287 11.8556 5.25171 11.7898 5.30005 11.7167C5.65423 11.1808 6.09047 10.6789 6.38044 10.385C6.75225 10.0082 7.0131 9.44702 7.21083 8.95823C7.33454 8.65242 7.44246 8.31058 7.50774 7.94842C8.05346 8.69439 8.23808 9.51419 8.24051 10.3143C8.24382 11.4015 7.90987 12.4426 7.65234 13.193L7.35001 14.0738L8.20865 13.7659C8.88594 13.523 9.32969 12.9837 9.5814 12.3254C10.4332 13.7952 9.70289 14.6512 9.02648 15.444C8.81364 15.6935 8.60614 15.9367 8.45495 16.1908C10.5695 15.6787 12.1058 14.586 12.7346 13.2216C13.353 11.8796 13.4031 10.4461 13.2582 9.52025C13.2089 9.17684 13.1668 8.58848 13.2061 7.96751C13.2461 7.33526 13.3674 6.72571 13.6065 6.30277L14.0729 5.47782L13.1567 5.63464C12.2894 5.78309 11.6765 6.3003 11.2428 6.91841C11.1333 7.07431 11.0344 7.23787 10.9445 7.40537C10.8139 6.96599 10.6613 6.52759 10.5312 6.19114C10.5189 6.15943 10.5068 6.12715 10.4945 6.09457C10.4257 5.91232 10.3534 5.72056 10.2428 5.56493C9.64459 4.72312 8.86728 3.29152 9.89237 1.69847ZM10.0427 7.45244C10.2858 8.12819 10.4713 8.59869 10.7381 9.17043C10.9397 8.80504 11.2704 8.36336 11.5696 7.96368C11.7094 7.77704 11.8422 7.59955 11.9519 7.44328C12.1052 7.2248 12.2771 7.03527 12.4733 6.88404C12.3968 7.22746 12.3547 7.57928 12.3338 7.90929C12.2901 8.60035 12.3361 9.25396 12.3939 9.65452L12.3948 9.66022C12.5175 10.4418 12.4745 11.6875 11.9445 12.8376C11.6471 13.4829 11.194 14.105 10.5162 14.6032C10.9546 13.5584 10.8785 12.2295 9.67728 11.0254L9.11332 10.4602C9.14078 9.14031 8.75655 7.70195 7.39615 6.54216L6.55414 5.82432L6.68293 6.94034C6.74784 7.50275 6.61528 8.09052 6.40358 8.61383C6.19721 9.12396 5.92911 9.53944 5.75076 9.762C5.42937 10.0898 4.96296 10.6282 4.57677 11.2125C4.38036 11.5097 4.19814 11.8286 4.06707 12.1452C3.92321 12.4927 3.8476 12.8471 3.86636 13.2243C3.88608 13.6209 3.90495 14.0003 3.9882 14.3667C3.35245 13.7947 2.75588 13.0572 2.35186 12.2091C1.96668 11.4006 1.76286 10.505 1.85521 9.5648C1.92313 8.87334 2.15278 8.14114 2.60901 7.38656C2.77822 7.57196 3.69429 8.48977 3.9882 8.7664C4.03211 8.40162 4.1086 8.11821 4.18195 7.84643C4.24037 7.62999 4.2968 7.42093 4.33318 7.18402C4.44529 6.45409 4.65006 5.86875 5.03872 5.171C5.70672 3.97176 6.86385 2.79229 8.70367 2.15013C8.13146 3.86637 9.00342 5.34369 9.5367 6.09412C9.5339 6.09018 9.53427 6.0909 9.53789 6.09794C9.55283 6.12697 9.63132 6.29622 9.71873 6.52235C9.81893 6.78156 9.9359 7.11258 10.0427 7.45244ZM11.7648 24.7774C5.6743 24.7774 -1.08546 22.0368 0.166866 14.5118C0.525759 14.7112 0.930846 14.9622 1.37408 15.2369C4.43082 17.1312 9.30184 20.1499 13.3476 15.1125H14.6271C14.6271 15.1125 14.43 15.791 13.9004 16.2847C10.5093 20.1352 5.76158 19.7968 0.992397 16.3801C1.8351 21.9447 7.08507 23.5992 11.7648 23.5992C16.4522 23.5992 20.5129 20.3722 21.8924 16.1389C21.9352 15.9472 22.0031 15.717 22.0664 15.502C22.1161 15.3334 22.1631 15.1742 22.193 15.0504C22.4521 15.0436 22.7152 15.0708 22.9474 15.0948C23.115 15.1121 23.2665 15.1277 23.3887 15.1277C22.281 20.4574 17.4175 24.7774 11.7648 24.7774Z" fill="#ECFD00"/>
</svg>
