<svg width="24" height="24" viewBox="0 0 24 24" fill="none" xmlns="http://www.w3.org/2000/svg">
<path fill-rule="evenodd" clip-rule="evenodd" d="M21.6282 5.78162V6.09823C21.6282 6.20868 21.5387 6.29823 21.4282 6.29823H2.60335C2.49289 6.29823 2.40335 6.20868 2.40335 6.09823V5.78162V1.8543C2.40335 1.74384 2.49289 1.6543 2.60335 1.6543H21.4282C21.5387 1.6543 21.6282 1.74384 21.6282 1.8543V5.78162ZM1.6456 10.2066V10.5281C1.6456 10.6385 1.73514 10.7281 1.8456 10.7281H22.1528C22.2633 10.7281 22.3528 10.6385 22.3528 10.5281V10.2066V5.98162C22.3528 5.87116 22.2633 5.78162 22.1528 5.78162H21.6282V6.09823C21.6282 6.20868 21.5387 6.29823 21.4282 6.29823H2.60335C2.49289 6.29823 2.40335 6.20868 2.40335 6.09823V5.78162H1.8456C1.73514 5.78162 1.6456 5.87116 1.6456 5.98162V10.2066ZM22.877 15.0237V15.3278C22.877 15.4382 22.7875 15.5278 22.677 15.5278H1.3218C1.21135 15.5278 1.1218 15.4382 1.1218 15.3278V15.0237V10.4066C1.1218 10.2961 1.21135 10.2066 1.3218 10.2066H1.6456V10.5281C1.6456 10.6385 1.73514 10.7281 1.8456 10.7281H22.1528C22.2633 10.7281 22.3528 10.6385 22.3528 10.5281V10.2066H22.677C22.7875 10.2066 22.877 10.2961 22.877 10.4066V15.0237ZM23.5706 22.144C23.5706 22.2544 23.481 22.344 23.3706 22.344H0.627734C0.517277 22.344 0.427734 22.2544 0.427734 22.144V15.2237C0.427734 15.1132 0.517277 15.0237 0.627734 15.0237H1.1218V15.3278C1.1218 15.4382 1.21135 15.5278 1.3218 15.5278H22.677C22.7875 15.5278 22.877 15.4382 22.877 15.3278V15.0237H23.3706C23.481 15.0237 23.5706 15.1132 23.5706 15.2237V22.144Z" fill="#060D1A" fill-opacity="0.1"/>
<path fill-rule="evenodd" clip-rule="evenodd" d="M21.677 14.9278H2.3218V11.3281H21.677V14.9278ZM22.877 15.0237H23.3706C23.4097 15.0237 23.4462 15.0349 23.477 15.0543C23.5332 15.0897 23.5706 15.1523 23.5706 15.2237V22.144C23.5706 22.2544 23.481 22.344 23.3706 22.344H0.627734C0.517277 22.344 0.427734 22.2544 0.427734 22.144V15.2237C0.427734 15.1521 0.465309 15.0894 0.521803 15.054C0.55252 15.0348 0.58883 15.0237 0.627734 15.0237H1.1218V10.4066C1.1218 10.2961 1.21135 10.2066 1.3218 10.2066H1.6456V5.98162C1.6456 5.88565 1.71318 5.80548 1.80335 5.78609C1.81697 5.78316 1.8311 5.78162 1.8456 5.78162H2.40335V1.8543C2.40335 1.74384 2.49289 1.6543 2.60335 1.6543H21.4282C21.5387 1.6543 21.6282 1.74384 21.6282 1.8543V5.78162H22.1528C22.1795 5.78162 22.205 5.78684 22.2282 5.79631C22.3013 5.82607 22.3528 5.89783 22.3528 5.98162V10.2066H22.677C22.7875 10.2066 22.877 10.2961 22.877 10.4066V15.0237ZM21.1528 10.1281V6.89823H2.8456V10.1281H21.1528ZM3.60335 5.69823H20.4282V2.8543H3.60335V5.69823ZM1.62773 16.1278V21.144H22.3706V16.1278H1.62773Z" fill="#ECFD00"/>
</svg>
