<svg width="24" height="24" viewBox="0 0 24 24" fill="none" xmlns="http://www.w3.org/2000/svg">
<g clip-path="url(#clip0_177840_241976)">
<path d="M12 24C18.6274 24 24 18.6274 24 12C24 5.37258 18.6274 0 12 0C5.37258 0 0 5.37258 0 12C0 18.6274 5.37258 24 12 24Z" fill="white" fill-opacity="0.15"/>
<path fill-rule="evenodd" clip-rule="evenodd" d="M3.51995 3.49522C10.8357 -3.79662 23.4302 1.05177 23.9999 11.2926V12.6988C23.9285 12.9864 23.9376 13.3068 23.8989 13.6056C23.2091 18.8902 18.903 23.2107 13.6098 23.8917C13.311 23.9298 12.9893 23.9217 12.7016 23.9928C12.2358 23.974 11.7614 24.0184 11.2968 23.9928C1.03728 23.4226 -3.80644 10.7977 3.51995 3.49522ZM7.69475 19.5279L8.44622 21.9669C10.7199 22.7841 13.2785 22.7841 15.5522 21.9669L16.3037 19.5279L14.0991 16.4575H9.8994L7.69475 19.5279ZM16.5117 11.6793L15.2417 15.5934L15.2577 15.6945L17.4374 18.6739H20.2031C21.6732 16.8915 22.5503 14.5908 22.5702 12.2769L20.1269 10.5075L16.5117 11.6793ZM1.42961 12.2769C1.4396 14.0394 1.96673 15.7995 2.85198 17.3218C3.12791 17.7963 3.44309 18.255 3.79827 18.6724H6.56243L8.74358 15.6945C8.78138 15.6033 8.63106 15.1875 8.59124 15.0528C8.25546 13.921 7.82078 12.8128 7.48967 11.6793L3.87297 10.5075L1.42961 12.2769ZM8.03753 2.1754C6.12744 2.9668 4.41914 4.28692 3.2841 6.01914L4.31096 9.16125L7.85588 10.3068L8.03166 10.2555L11.2719 7.87071V4.07676L8.42132 2.02452L8.03753 2.1754ZM15.5448 2.02305L12.7265 4.07676V7.87071L15.9683 10.2555L16.1439 10.3068L19.6874 9.16125L20.7143 6.01914C19.4978 4.16821 17.6277 2.76804 15.5448 2.02305Z" fill="#ECFD00"/>
</g>
<defs>
<clipPath id="clip0_177840_241976">
<rect width="24" height="24" fill="white"/>
</clipPath>
</defs>
</svg>
