<svg width="24" height="24" viewBox="0 0 24 24" fill="none" xmlns="http://www.w3.org/2000/svg">
<g clip-path="url(#clip0_77689_636799)">
<path d="M11.9999 0.736328L15.8794 7.84981L23.8435 9.34123L18.277 15.229L19.3196 23.2642L11.9999 19.7896L4.68011 23.2642L5.72275 15.229L0.15625 9.34123L8.1204 7.84981L11.9999 0.736328Z" fill="#060D1A" fill-opacity="0.1"/>
<path fill-rule="evenodd" clip-rule="evenodd" d="M11.9999 0.736328L15.8794 7.84981L23.8435 9.34123L18.277 15.229L19.3196 23.2642L11.9999 19.7896L4.68011 23.2642L5.72275 15.229L0.15625 9.34123L8.1204 7.84981L11.9999 0.736328ZM15.0986 8.92446L21.4599 10.1157L17.0137 14.8185L17.8465 21.2366L11.9999 18.4613L6.15328 21.2366L6.98608 14.8185L2.53988 10.1157L8.90118 8.92446L11.9999 3.24262L15.0986 8.92446ZM13.2352 11.432L11.9994 9.16602L10.7636 11.432L8.22656 11.9071L9.99979 13.7827L9.66766 16.3424L11.9994 15.2355L14.3311 16.3424L13.999 13.7827L15.7722 11.9071L13.2352 11.432Z" fill="#ECFD00"/>
</g>
<defs>
<clipPath id="clip0_77689_636799">
<rect width="24" height="24" fill="white"/>
</clipPath>
</defs>
</svg>
