<svg width="24" height="24" viewBox="0 0 24 24" fill="none" xmlns="http://www.w3.org/2000/svg">
<path d="M12.3901 16.2207L11.9987 15.8836L11.6072 16.2205C10.694 17.0063 9.49828 17.4291 8.26523 17.3963C7.03222 17.3635 5.86337 16.8778 4.9975 16.0454C4.1333 15.2144 3.63666 14.1015 3.60195 12.9366C3.5674 11.7771 3.99284 10.6446 4.79814 9.76981L12.0003 2.83309L19.2007 9.76984C20.007 10.6451 20.4329 11.7786 20.398 12.9391C20.3629 14.105 19.8652 15.2186 18.9995 16.0496C18.1331 16.8814 16.964 17.3662 15.731 17.3983C14.4981 17.4304 13.3028 17.0069 12.3901 16.2207Z" fill="#060D1A" fill-opacity="0.1" stroke="#ECFD00" stroke-width="1.2"/>
<path d="M12 16L15.4641 22H8.5359L12 16Z" fill="#ECFD00"/>
</svg>
