<svg width="24" height="24" viewBox="0 0 24 24" fill="none" xmlns="http://www.w3.org/2000/svg">
<path d="M20 15.3256C20 19.564 16.6421 23 12.5 23C8.35786 23 5 19.564 5 15.3256C5 13.1217 5.90786 11.1348 7.36179 9.73513C7.50328 9.59891 7.66648 9.45119 7.84466 9.28992C9.35673 7.9213 11.9473 5.5765 11.5 1C17.5 5.09302 19.6954 8.16279 15.7 15.3256C16.5667 15.3256 17.8333 14.4829 19.5 12.7977C19.7697 13.5893 20 14.44 20 15.3256Z" fill="#060D1A" fill-opacity="0.1"/>
<path fill-rule="evenodd" clip-rule="evenodd" d="M8.19406 10.5996L8.19405 10.5996C6.96858 11.7794 6.2 13.4568 6.2 15.3256C6.2 18.9274 9.04646 21.8 12.5 21.8C15.9535 21.8 18.8 18.9274 18.8 15.3256C18.8 15.2431 18.7974 15.1605 18.7924 15.0776C18.5073 15.3098 18.2313 15.5154 17.9647 15.6927C17.2651 16.1581 16.489 16.5256 15.7 16.5256H13.6566L14.652 14.741C16.5873 11.2716 16.8409 9.10909 16.222 7.42571C15.7163 6.0503 14.5626 4.77865 12.673 3.32302C12.2237 6.94503 9.95134 9.00172 8.66623 10.1648L8.64993 10.1796C8.46802 10.3443 8.31959 10.4788 8.19406 10.5996ZM11.5402 2.48885C11.3671 6.10165 9.18327 8.07831 7.84466 9.28992L7.84459 9.28998C7.66644 9.45123 7.50326 9.59893 7.36179 9.73513C5.90786 11.1348 5 13.1217 5 15.3256C5 19.564 8.35786 23 12.5 23C16.6421 23 20 19.564 20 15.3256C20 14.9146 19.9504 14.5111 19.8703 14.1176C19.7778 13.6632 19.6445 13.222 19.5 12.7977C19.1617 13.1398 18.8398 13.4472 18.5345 13.7198C18.1394 14.0725 17.772 14.3672 17.4321 14.6037C16.7405 15.0849 16.1632 15.3256 15.7 15.3256C15.9986 14.7903 16.2626 14.2778 16.493 13.7861C19.1213 8.17779 17.3811 5.26547 12.7504 1.88063C12.3544 1.5912 11.9373 1.29832 11.5 1C11.5513 1.52502 11.5626 2.02067 11.5402 2.48885Z" fill="#ECFD00"/>
</svg>
