<svg width="24" height="24" viewBox="0 0 24 24" fill="none" xmlns="http://www.w3.org/2000/svg">
<path fill-rule="evenodd" clip-rule="evenodd" d="M12 22C17.5228 22 22 17.5228 22 12C22 6.47715 17.5228 2 12 2C6.47715 2 2 6.47715 2 12C2 17.5228 6.47715 22 12 22ZM12 15C13.6569 15 15 13.6569 15 12C15 10.3431 13.6569 9 12 9C10.3431 9 9 10.3431 9 12C9 13.6569 10.3431 15 12 15Z" fill="#060D1A" fill-opacity="0.1"/>
<path fill-rule="evenodd" clip-rule="evenodd" d="M20.7438 11H18V13H20.7438C20.2845 17.061 17.061 20.2845 13 20.7438V18H11V20.7438C6.93895 20.2845 3.71554 17.061 3.25619 13H6V11H3.25619C3.71554 6.93895 6.93895 3.71554 11 3.25619V6H13V3.25619C17.061 3.71554 20.2845 6.93895 20.7438 11ZM16.2 12C16.2 12.7973 15.9778 13.5428 15.592 14.1778L17.6575 16.2432L16.2432 17.6575L14.1778 15.592C13.5428 15.9778 12.7973 16.2 12 16.2C11.2033 16.2 10.4583 15.9781 9.82362 15.5928L7.75886 17.6576L6.34465 16.2434L8.40886 14.1792C8.02251 13.5439 7.8 12.7979 7.8 12C7.8 11.2027 8.02218 10.4572 8.408 9.82222L6.34375 7.75796L7.75796 6.34375L9.82222 8.408C10.4572 8.02218 11.2027 7.8 12 7.8C12.7979 7.8 13.5439 8.02251 14.1792 8.40886L16.2441 6.3439L17.6584 7.75811L15.5928 9.82362C15.9781 10.4583 16.2 11.2033 16.2 12ZM13.3006 14.7042L13.2934 14.7076C12.9018 14.895 12.4631 15 12 15C11.5375 15 11.0994 14.8953 10.7081 14.7084C10.0921 14.414 9.59215 13.9156 9.29583 13.3006L9.2931 13.2949C9.10522 12.9029 9 12.4637 9 12C9 11.5369 9.10495 11.0982 9.29237 10.7066C9.58685 10.0912 10.0849 9.5919 10.6994 9.29583L10.7066 9.29237C11.0982 9.10495 11.5369 9 12 9C12.4637 9 12.9029 9.10522 13.2949 9.2931C13.9096 9.58768 14.4083 10.0854 14.7042 10.6994L14.7084 10.7081C14.8953 11.0994 15 11.5375 15 12C15 12.4631 14.895 12.9018 14.7076 13.2934C14.4131 13.9088 13.9151 14.4081 13.3006 14.7042ZM22 12C22 17.5228 17.5228 22 12 22C6.47715 22 2 17.5228 2 12C2 6.47715 6.47715 2 12 2C17.5228 2 22 6.47715 22 12ZM11.1361 10.0124C11.2554 10.1317 11.3261 10.2811 11.3482 10.4361L11.8176 10.9055C11.877 10.8957 11.9379 10.8906 12 10.8906C12.074 10.8906 12.1463 10.8979 12.2162 10.9117L12.6552 10.4727C12.6718 10.3066 12.7438 10.1449 12.8711 10.0176C13.164 9.72471 13.6389 9.72471 13.9318 10.0176C14.2247 10.3105 14.2247 10.7854 13.9318 11.0783C13.8207 11.1893 13.6834 11.2583 13.5398 11.2851L13.0799 11.745C13.0992 11.8269 13.1094 11.9123 13.1094 12C13.1094 12.0621 13.1043 12.123 13.0945 12.1824L13.5656 12.6535C13.7209 12.6755 13.8706 12.7462 13.9901 12.8657C14.283 13.1586 14.283 13.6335 13.9901 13.9264C13.6972 14.2192 13.2223 14.2192 12.9294 13.9264C12.8101 13.807 12.7394 13.6574 12.7173 13.5022L12.2869 13.0719C12.1954 13.0963 12.0992 13.1094 12 13.1094C11.9123 13.1094 11.8269 13.0992 11.745 13.0799L11.3156 13.5093C11.2981 13.6737 11.2263 13.8335 11.1002 13.9595C10.8073 14.2524 10.3325 14.2524 10.0396 13.9595C9.74668 13.6666 9.74668 13.1917 10.0396 12.8988C10.1521 12.7864 10.2914 12.7171 10.4369 12.691L10.9117 12.2162C10.8979 12.1463 10.8906 12.074 10.8906 12C10.8906 11.9008 10.9037 11.8046 10.9281 11.7131L10.5004 11.2854C10.3449 11.2634 10.195 11.1927 10.0755 11.0731C9.78256 10.7802 9.78256 10.3053 10.0755 10.0124C10.3683 9.71955 10.8432 9.71955 11.1361 10.0124Z" fill="#ECFD00"/>
</svg>
