<svg width="24" height="24" viewBox="0 0 24 24" fill="none" xmlns="http://www.w3.org/2000/svg">
<path fill-rule="evenodd" clip-rule="evenodd" d="M0.833984 7.47044L6.9375 10.2361L11.9916 1.36719L17.046 10.2361L23.2449 7.47044L20.8607 19.2011H2.93172L0.833984 7.47044ZM13.9235 11.7559L12.04 10.2832L10.1566 11.7559V14.7012L12.04 16.1738L13.9235 14.7012V11.7559Z" fill="#060D1A" fill-opacity="0.1"/>
<path fill-rule="evenodd" clip-rule="evenodd" d="M3.29223 18.4142L1.45586 8.20108L5.36373 10.3983L5.46377 10.4614C6.19665 10.9242 6.22994 10.9452 7.21631 10.6225C8.14729 10.318 8.17224 10.2835 8.5498 9.41002L11.9998 2.23628L15.4498 9.41002C15.8091 10.3267 15.9047 10.3557 16.634 10.5773C16.691 10.5946 16.7517 10.6131 16.8168 10.6332C17.7157 10.9116 17.7506 10.918 18.6359 10.3983L22.5222 8.14691L20.7073 18.4142H3.29223ZM3.51853 19.6743L3.89993 21.798H20.0996L20.481 19.6743H3.51853ZM6.77665 9.50008C6.37208 9.60621 6.36462 9.60817 5.99859 9.37997C5.09376 8.81586 2.26421 7.35018 0.0722656 6.24402C0.264606 7.60545 2.47212 20.4616 2.83284 22.3633C2.98358 22.7462 3.35391 22.998 3.76628 22.998H20.2333C20.6457 22.998 21.016 22.7462 21.1667 22.3633C21.5664 20.2564 23.5532 8.87023 23.9727 6.22432C22.4707 7.07151 18.9574 8.93055 18.001 9.37997L17.9304 9.42452C17.5912 9.63908 17.5766 9.64836 17.1023 9.46258L17.0865 9.45639L17.0865 9.45638C16.8946 9.38124 16.8019 9.34493 16.7367 9.28065C16.6759 9.22054 16.6391 9.13599 16.568 8.97238L16.5498 8.93055C15.8794 7.39247 12.9418 1.74865 11.9998 0C11.7791 0.429768 11.4388 1.08291 11.0402 1.84816C9.78752 4.2526 7.95829 7.76381 7.44975 8.93054L7.44771 8.93523C7.34685 9.16663 7.29906 9.27627 7.21673 9.34379C7.14259 9.40459 7.04043 9.43123 6.84628 9.48186L6.83235 9.4855L6.77665 9.50008ZM11.3566 12.3409L12.04 11.8065L12.7235 12.3409V14.1162L12.04 14.6506L11.3566 14.1162V12.3409ZM12.04 10.2832L13.9235 11.7559V14.7012L12.04 16.1738L10.1566 14.7012V11.7559L12.04 10.2832ZM5.85742 12.9414L6.72345 13.6186V14.9728L5.85742 15.65L4.9914 14.9728V13.6186L5.85742 12.9414ZM19.0887 13.6186L18.2227 12.9414L17.3566 13.6186V14.9728L18.2227 15.65L19.0887 14.9728V13.6186Z" fill="#ECFD00"/>
</svg>
