<svg width="24" height="24" viewBox="0 0 24 24" fill="none" xmlns="http://www.w3.org/2000/svg">
<g clip-path="url(#clip0_77689_636818)">
<path d="M17.8888 1.80078L20.7717 6.93605L23.7776 12.0004L20.7717 17.0647L17.8888 22.1999L12.0001 22.129L6.11138 22.1999L3.22848 17.0647L0.222656 12.0004L3.22848 6.93605L6.11138 1.80078L12.0001 1.87174L17.8888 1.80078Z" fill="#060D1A" fill-opacity="0.1"/>
<path fill-rule="evenodd" clip-rule="evenodd" d="M5.65446 2.20876L6 1.60742L6.69374 1.60884L17.3076 1.60884L18 1.60742L18.3462 2.20989L23.6519 11.3997L24 11.9997L23.6519 12.5997L18.3478 21.7867L18 22.392L17.3107 22.3906L6.69058 22.3906L6 22.392L5.65285 21.7879L0.348052 12.5997L0 11.9997L0.348052 11.3997L5.65446 2.20876ZM6.3483 3.40984L7.80034 5.92342L4.63859 11.3997H1.73534L6.3483 3.40984ZM4.63955 12.5997H1.73534L6.34031 20.5757L7.77948 18.0381L4.63955 12.5997ZM8.79885 18.6732L7.37192 21.1892L16.6344 21.1892L15.2181 18.6732L8.79885 18.6732ZM16.2285 18.0219L17.6629 20.5701L22.2647 12.5997L19.3591 12.5997L16.2285 18.0219ZM19.3601 11.3997H22.2647L17.6549 3.41547L16.2076 5.93959L19.3601 11.3997ZM15.177 5.32468L16.6187 2.81026L7.38778 2.81027L8.84031 5.32472L15.177 5.32468ZM18.3204 11.9989L15.1599 17.4731H8.83883L5.67831 11.9989L8.83883 6.52472H15.1599L18.3204 11.9989Z" fill="#ECFD00"/>
</g>
<defs>
<clipPath id="clip0_77689_636818">
<rect width="24" height="24" fill="white"/>
</clipPath>
</defs>
</svg>
