<svg width="24" height="24" viewBox="0 0 24 24" fill="none" xmlns="http://www.w3.org/2000/svg">
<path d="M6.9375 10.2361L0.833984 7.47044L2.93172 19.2011H20.8607L23.2449 7.47044L17.046 10.2361L11.9916 1.36719L6.9375 10.2361Z" fill="#060D1A" fill-opacity="0.1"/>
<path fill-rule="evenodd" clip-rule="evenodd" d="M1.45586 8.20108L3.29223 18.4142L3.51853 19.6743L3.89993 21.798H20.0996L20.481 19.6743L20.7073 18.4142L22.5222 8.14691L18.6359 10.3983C17.7506 10.918 17.7157 10.9116 16.8168 10.6332C15.918 10.3549 15.8371 10.3983 15.4498 9.41002L11.9998 2.23628L8.5498 9.41002C8.17224 10.2835 8.14729 10.318 7.21631 10.6225C6.1869 10.9593 6.19556 10.9217 5.36373 10.3983L1.45586 8.20108ZM5.99859 9.37997C6.3807 9.6182 6.37204 9.6056 6.83235 9.4855C7.25753 9.37456 7.25386 9.37997 7.44975 8.93054C8.12014 7.39248 11.0857 1.78011 11.9998 0C12.9418 1.74865 15.8794 7.39247 16.5498 8.93055C16.718 9.31633 16.7 9.30499 17.1023 9.46258C17.6075 9.66046 17.5912 9.63704 18.001 9.37997C18.9574 8.93055 22.4707 7.07151 23.9727 6.22432C23.5532 8.87023 21.5664 20.2564 21.1667 22.3633C21.016 22.7462 20.6457 22.998 20.2333 22.998H3.76628C3.35391 22.998 2.98358 22.7462 2.83284 22.3633C2.47212 20.4616 0.264606 7.60545 0.0722656 6.24402C2.26421 7.35018 5.09376 8.81586 5.99859 9.37997Z" fill="#ECFD00"/>
<path d="M3.51853 19.6743H20.481L20.7073 18.4142H3.29223L3.51853 19.6743Z" fill="#ECFD00"/>
</svg>
